<svg xmlns="http://www.w3.org/2000/svg" xmlns:xlink="http://www.w3.org/1999/xlink" viewBox="0 0 179.93 55.23"><defs><style>.a{isolation:isolate;}.b{fill:url(#a);}.c{fill:none;stroke-miterlimit:10;stroke-width:0.71px;stroke:url(#b);}.d{fill:url(#c);}.e,.f,.g,.h{mix-blend-mode:screen;}.e{fill:url(#d);}.f{fill:url(#e);}.g{fill:url(#f);}.h{fill:url(#g);}.i{fill:url(#h);}</style><linearGradient id="a" x1="89.97" y1="6.27" x2="89.97" y2="48.67" gradientUnits="userSpaceOnUse"><stop offset="0" stop-color="#0f041c"/><stop offset="0.4" stop-color="#0a0a19"/><stop offset="0.78" stop-color="#140d24"/><stop offset="1" stop-color="#1c102d"/></linearGradient><linearGradient id="b" x1="156.32" y1="-16.41" x2="23.62" y2="71.59" gradientUnits="userSpaceOnUse"><stop offset="0" stop-color="#00baff"/><stop offset="1" stop-color="#670a88"/></linearGradient><linearGradient id="c" x1="142.12" y1="-7" x2="24.91" y2="70.74" xlink:href="#b"/><radialGradient id="d" cx="144.38" cy="796.49" r="34.82" gradientTransform="translate(-57.32 -90.66) scale(1.12 0.12)" gradientUnits="userSpaceOnUse"><stop offset="0" stop-color="#00c9ff"/><stop offset="0.15" stop-color="#00a1cc" stop-opacity="0.8"/><stop offset="0.39" stop-color="#006985" stop-opacity="0.52"/><stop offset="0.6" stop-color="#003c4c" stop-opacity="0.3"/><stop offset="0.77" stop-color="#001b23" stop-opacity="0.14"/><stop offset="0.92" stop-color="#000709" stop-opacity="0.04"/><stop offset="1" stop-opacity="0"/></radialGradient><radialGradient id="e" cx="162.25" cy="990.56" r="28.83" gradientTransform="translate(-54.54 -95.5) scale(1.1 0.1)" gradientUnits="userSpaceOnUse"><stop offset="0" stop-color="#fff400"/><stop offset="0.15" stop-color="#ccc400" stop-opacity="0.8"/><stop offset="0.39" stop-color="#857f00" stop-opacity="0.52"/><stop offset="0.6" stop-color="#4c4800" stop-opacity="0.3"/><stop offset="0.77" stop-color="#232100" stop-opacity="0.14"/><stop offset="0.92" stop-color="#090900" stop-opacity="0.04"/><stop offset="1" stop-opacity="0"/></radialGradient><radialGradient id="f" cx="147.97" cy="1489.07" r="28.83" xlink:href="#e"/><radialGradient id="g" cx="102.44" cy="1134.9" r="34.82" gradientTransform="translate(-57.32 -90.66) scale(1.12 0.12)" gradientUnits="userSpaceOnUse"><stop offset="0.01" stop-color="#ca33ff"/><stop offset="0.16" stop-color="#a229cc" stop-opacity="0.8"/><stop offset="0.39" stop-color="#691b85" stop-opacity="0.52"/><stop offset="0.6" stop-color="#3c0f4c" stop-opacity="0.3"/><stop offset="0.78" stop-color="#1b0723" stop-opacity="0.14"/><stop offset="0.92" stop-color="#070209" stop-opacity="0.04"/><stop offset="1" stop-opacity="0"/></radialGradient><linearGradient id="h" x1="36.05" y1="65.51" x2="147.17" y2="-12.59" gradientUnits="userSpaceOnUse"><stop offset="0" stop-color="#e78323"/><stop offset="1" stop-color="#ffef00"/></linearGradient></defs><title>button</title><g class="a"><path class="b" d="M167.17,48.86H12.76L1.57,37.66V17.52L12.76,6.32H167.17l11.2,11.2V37.66Z"/><path class="c" d="M167.17,48.86H12.76L1.57,37.66V17.52L12.76,6.32H167.17l11.2,11.2V37.66Z"/><path class="d" d="M36.68,7.73H30.11c.95-.93,1.79-1.81,2.83-2.83H150.31l2.82,2.83h-37L109.92,14H70L63.8,7.73H36.68ZM23.42,47.44H10.17L6.86,44.17l-4-4V15l3.28-3.27L6.86,11l3.31-3.28h16.6c.92-.93,1.77-1.81,2.83-2.83H9L2.83,11.05,0,13.84V41.33l7.44,7.44L9,50.27H26.26C25.19,49.26,24.35,48.37,23.42,47.44Zm149-41L171,4.9h-17.3c1,1,1.87,1.9,2.8,2.83h13.3L177.1,15V40.14l-7.34,7.3H153.11c-.93,1-1.77,1.82-2.79,2.83H171l1.5-1.46,7.47-7.48V13.84Zm-114.21,41H26.77c.94,1,1.79,1.82,2.83,2.84H147c1-1,1.9-1.87,2.83-2.84H58.25Z"/><path class="e" d="M142.72,7.71c0,2.37-17.4,4.3-38.87,4.3S65,10.08,65,7.71s17.4-4.3,38.87-4.3S142.72,5.33,142.72,7.71Z"/><path class="f" d="M156.59,2.86c0,1.58-14.26,2.86-31.86,2.86S92.87,4.44,92.87,2.86,107.14,0,124.73,0,156.59,1.28,156.59,2.86Z"/><ellipse class="g" cx="108.95" cy="52.36" rx="31.86" ry="2.86"/><path class="h" d="M95.9,49.5c0,2.38-17.41,4.3-38.88,4.3s-38.87-1.92-38.87-4.3S35.56,45.2,57,45.2,95.9,47.13,95.9,49.5Z"/><path class="i" d="M155.07,45.16l-6.63,6.65H31.51l-6.64-6.65H10.7l.54.54h13.4l6.1,6.11h0l.49.45c.27.3.51.52.73.74l.76.76.06.08H147.19l2-2,6.07-6.11h13.4l.55-.54Zm14.17-35.1-.55-.53h-13.4l-6.07-6.11-2-2H32.75l-.06.08-.76.75c-.22.23-.46.45-.73.74l-.49.46h0l-6.1,6.11H11.24l-.54.53H24.87l6.64-6.64H148.44l6.63,6.64Z"/></g></svg>