<svg xmlns="http://www.w3.org/2000/svg" xmlns:xlink="http://www.w3.org/1999/xlink" viewBox="0 0 235.51 155.46"><defs><style>.a{isolation:isolate;}.b,.c{fill:none;stroke-miterlimit:10;}.b{stroke:url(#a);}.c{stroke:url(#b);}.d{fill:url(#c);}.e,.f,.g,.h,.i,.j{mix-blend-mode:screen;}.e{fill:url(#d);}.f{fill:url(#e);}.g{fill:url(#f);}.h{fill:url(#g);}.i{fill:url(#h);}.j{fill:url(#i);}</style><linearGradient id="a" x1="200.97" y1="-45.65" x2="42.38" y2="59.53" gradientUnits="userSpaceOnUse"><stop offset="0" stop-color="#00baff"/><stop offset="1" stop-color="#670a88"/></linearGradient><linearGradient id="b" x1="200.97" y1="95.1" x2="42.38" y2="200.28" xlink:href="#a"/><linearGradient id="c" x1="28.83" y1="142.56" x2="220.15" y2="8.09" gradientUnits="userSpaceOnUse"><stop offset="0" stop-color="#e78323"/><stop offset="1" stop-color="#ffef00"/></linearGradient><radialGradient id="d" cx="212.77" cy="3977.74" r="40.13" gradientTransform="translate(-52.08 -262.05) scale(1.12 0.1)" gradientUnits="userSpaceOnUse"><stop offset="0" stop-color="#fff400"/><stop offset="0.15" stop-color="#ccc400" stop-opacity="0.8"/><stop offset="0.39" stop-color="#857f00" stop-opacity="0.52"/><stop offset="0.6" stop-color="#4c4800" stop-opacity="0.3"/><stop offset="0.77" stop-color="#232100" stop-opacity="0.14"/><stop offset="0.92" stop-color="#090900" stop-opacity="0.04"/><stop offset="1" stop-opacity="0"/></radialGradient><radialGradient id="e" cx="227.2" cy="4084" r="17.26" gradientTransform="translate(-68.74 -262.05) scale(0.83 0.1)" xlink:href="#d"/><radialGradient id="f" cx="95.82" cy="2466.88" r="49.16" gradientTransform="translate(-52.08 -297.72) scale(1.12 0.12)" gradientUnits="userSpaceOnUse"><stop offset="0" stop-color="#00e6ff"/><stop offset="0.15" stop-color="#00b8cc" stop-opacity="0.8"/><stop offset="0.39" stop-color="#007885" stop-opacity="0.52"/><stop offset="0.6" stop-color="#00444c" stop-opacity="0.3"/><stop offset="0.77" stop-color="#001f23" stop-opacity="0.14"/><stop offset="0.92" stop-color="#000809" stop-opacity="0.04"/><stop offset="1" stop-opacity="0"/></radialGradient><radialGradient id="g" cx="154.83" cy="2477.91" r="49.16" gradientTransform="translate(-52.08 -297.72) scale(1.12 0.12)" gradientUnits="userSpaceOnUse"><stop offset="0" stop-color="#00c9ff"/><stop offset="0.15" stop-color="#00a1cc" stop-opacity="0.8"/><stop offset="0.39" stop-color="#006985" stop-opacity="0.52"/><stop offset="0.6" stop-color="#003c4c" stop-opacity="0.3"/><stop offset="0.77" stop-color="#001b23" stop-opacity="0.14"/><stop offset="0.92" stop-color="#000709" stop-opacity="0.04"/><stop offset="1" stop-opacity="0"/></radialGradient><radialGradient id="h" cx="82.8" cy="2742.03" r="27.83" gradientTransform="translate(-27.39 -323.12) scale(1.51 0.17)" gradientUnits="userSpaceOnUse"><stop offset="0" stop-color="#ba53ff"/><stop offset="0.15" stop-color="#9543cc" stop-opacity="0.8"/><stop offset="0.39" stop-color="#612b85" stop-opacity="0.52"/><stop offset="0.6" stop-color="#37194c" stop-opacity="0.3"/><stop offset="0.77" stop-color="#190b23" stop-opacity="0.14"/><stop offset="0.92" stop-color="#070309" stop-opacity="0.04"/><stop offset="1" stop-opacity="0"/></radialGradient><radialGradient id="i" cx="235.39" cy="5142.35" r="40.71" gradientTransform="translate(-54.23 -331.34) scale(1.02 0.07)" xlink:href="#d"/></defs><title>highScoresBg</title><g class="a"><path class="b" d="M7.83,6.94H235.51"/><path class="c" d="M235.51,147.69H7.83"/><path class="d" d="M232.84,11.45H140l-8.6-8.6h0l-.67-.66-1-1-1.06-1L128.5,0H114.83L112,2.85l-8.61,8.6H10.47l-.78.77h94l9.38-9.37h17.19l9.38,9.37h94Zm.73,131-.77.76H140l-8.6,8.61-2.86,2.87H114.83l-.1-.12-1.06-1c-.31-.32-.64-.64-1-1l-.68-.66h0l-8.61-8.61H10.49l-.76-.76h94l9.38,9.37h17.19l9.38-9.37Z"/><ellipse class="e" cx="185.43" cy="142.88" rx="44.79" ry="4.09"/><path class="f" d="M135.18,153.7c0,1-6.45,1.76-14.4,1.76s-14.39-.79-14.39-1.76,6.44-1.76,14.39-1.76S135.18,152.73,135.18,153.7Z"/><ellipse class="g" cx="54.88" cy="6.94" rx="54.88" ry="6.07"/><ellipse class="h" cx="120.76" cy="8.3" rx="54.88" ry="6.07"/><ellipse class="i" cx="97.87" cy="147.69" rx="42.11" ry="4.78"/><path class="j" d="M226.89,11.66c0,1.5-18.56,2.71-41.45,2.71S144,13.16,144,11.66s18.56-2.72,41.45-2.72S226.89,10.16,226.89,11.66Z"/></g></svg>