<svg xmlns="http://www.w3.org/2000/svg" xmlns:xlink="http://www.w3.org/1999/xlink" viewBox="0 0 158.54 55.23"><defs><style>.a{isolation:isolate;}.b,.c{mix-blend-mode:screen;}.b{fill:url(#a);}.c{fill:url(#b);}.d{fill:url(#c);}</style><radialGradient id="a" cx="148.65" cy="1035.91" r="28.83" gradientTransform="translate(-53.21 -100) scale(1.1 0.1)" gradientUnits="userSpaceOnUse"><stop offset="0" stop-color="#fff400"/><stop offset="0.15" stop-color="#ccc400" stop-opacity="0.8"/><stop offset="0.39" stop-color="#857f00" stop-opacity="0.52"/><stop offset="0.6" stop-color="#4c4800" stop-opacity="0.3"/><stop offset="0.77" stop-color="#232100" stop-opacity="0.14"/><stop offset="0.92" stop-color="#090900" stop-opacity="0.04"/><stop offset="1" stop-opacity="0"/></radialGradient><radialGradient id="b" cx="134.37" cy="1534.43" r="28.83" xlink:href="#a"/><linearGradient id="c" x1="25.35" y1="65.51" x2="136.47" y2="-12.59" gradientUnits="userSpaceOnUse"><stop offset="0" stop-color="#e78323"/><stop offset="1" stop-color="#ffef00"/></linearGradient></defs><title>inputBg</title><g class="a"><path class="b" d="M142.89,2.86c0,1.58-14.26,2.86-31.86,2.86S79.17,4.44,79.17,2.86,93.44,0,111,0,142.89,1.28,142.89,2.86Z"/><ellipse class="c" cx="95.25" cy="52.36" rx="31.86" ry="2.86"/><path class="d" d="M144.37,45.16l-6.63,6.65H20.81l-6.64-6.65H0l.54.54h13.4L20,51.81h0l.49.45c.27.3.51.52.73.74s.46.45.75.76l.07.08H136.49l2-2,6.07-6.11H158l.55-.54Zm14.17-35.1L158,9.53h-13.4l-6.07-6.11-2-2H22.05L22,1.47c-.29.3-.52.53-.75.75s-.46.45-.73.74L20,3.42h0l-6.1,6.11H.54L0,10.06H14.17l6.64-6.64H137.74l6.63,6.64Z"/></g></svg>