<svg xmlns="http://www.w3.org/2000/svg" viewBox="0 0 108.85 39.28"><defs><style>.a{fill:#fff;}.b{fill:#fdfffc;}</style></defs><title>logoStars</title><polygon class="a" points="54.42 0 60.6 12.51 74.41 14.51 64.43 24.25 66.8 38.01 54.44 31.52 42.09 38.02 44.44 24.27 34.44 14.53 48.25 12.52 54.42 0"/><polygon class="b" points="54.44 27.28 47.07 31.16 48.47 22.95 42.51 17.15 50.74 15.95 54.42 8.48 58.11 15.94 66.35 17.13 60.39 22.95 61.81 31.15 54.44 27.28"/><polygon class="a" points="99.19 13.11 100.61 22.14 108.85 26.09 100.71 30.23 99.5 39.28 93.04 32.81 84.05 34.47 88.21 26.33 83.87 18.29 92.89 19.73 99.19 13.11"/><polygon class="b" points="94.31 28.77 90.85 29.4 92.45 26.28 90.78 23.19 94.25 23.74 96.67 21.2 97.21 24.67 100.38 26.18 97.25 27.77 96.79 31.25 94.31 28.77"/><polygon class="a" points="9.66 13.11 8.24 22.14 0 26.09 8.15 30.23 9.36 39.28 15.81 32.81 24.8 34.47 20.64 26.33 24.99 18.29 15.96 19.73 9.66 13.11"/><polygon class="b" points="11.61 27.77 8.48 26.18 11.64 24.67 12.19 21.2 14.61 23.74 18.07 23.19 16.4 26.28 18 29.4 14.55 28.77 12.07 31.25 11.61 27.77"/></svg>